<svg xmlns="http://www.w3.org/2000/svg" width="24" height="24" viewBox="0 0 24 24" class="w-full h-full"><g id="Group_80633" data-name="Group 80633" transform="translate(-1067.5 -469)"><rect id="Rectangle_9361" data-name="Rectangle 9361" width="24" height="24" transform="translate(1067.5 469)" fill="none"></rect><g id="Group_72587" data-name="Group 72587" transform="translate(-91.458 -7.909)"><path id="Path_43445" data-name="Path 43445" d="M20.8,10.819,20.107,8,8,11.956l.752,2.888a1.4,1.4,0,0,1,1.753,1.077,1.62,1.62,0,0,1-.961,1.964l.752,2.888,1.427-.466" transform="translate(1152.846 472.413)" fill="none" stroke="currentColor" stroke-linecap="round" stroke-linejoin="round" stroke-width="1"></path><path id="Path_43446" data-name="Path 43446" d="M118.383,92.508h1.654V89.266c-.685,0-1.24-.829-1.24-1.853s.555-1.853,1.24-1.853V82.318H106.394V85.56c.685,0,1.24.829,1.24,1.853s-.555,1.853-1.24,1.853v3.242h11.989" transform="translate(1059.537 402.398)" fill="none" stroke="currentColor" stroke-linejoin="round" stroke-width="1"></path><line id="Line_1536" data-name="Line 1536" y2="2.316" transform="translate(1176.266 484.716)" fill="none" stroke="currentColor" stroke-linejoin="round" stroke-width="1"></line><line id="Line_1537" data-name="Line 1537" y2="2.764" transform="translate(1176.266 487.958)" fill="none" stroke="currentColor" stroke-linejoin="round" stroke-width="1"></line><line id="Line_1538" data-name="Line 1538" y2="2.79" transform="translate(1176.266 491.653)" fill="none" stroke="currentColor" stroke-linejoin="round" stroke-width="1"></line></g></g></svg>