<svg xmlns="http://www.w3.org/2000/svg" xmlns:xlink="http://www.w3.org/1999/xlink" width="24" height="24" viewBox="0 0 24 24" class="w-full h-full"><defs><clipPath id="clip-path"><rect id="Rectangle_11585" data-name="Rectangle 11585" width="19.908" height="17.722" fill="none" stroke="currentColor" stroke-width="1"></rect></clipPath></defs><g id="Group_72573" data-name="Group 72573" transform="translate(-1067.5 -469)"><rect id="Rectangle_9361" data-name="Rectangle 9361" width="24" height="24" transform="translate(1067.5 469)" fill="none"></rect><g id="Group_80440" data-name="Group 80440" transform="translate(1069.494 472.785)"><g id="Group_80440-2" data-name="Group 80440" transform="translate(0 0)" clip-path="url(#clip-path)"><path id="Path_59328" data-name="Path 59328" d="M6.182,11.436A14.962,14.962,0,0,0,1.13,14.2c1.587,5.794,4.825,9.161,9.362,9.7a4.373,4.373,0,0,0,1.118-1.7" transform="translate(-0.654 -6.622)" fill="none" stroke="currentColor" stroke-width="1"></path><path id="Path_59329" data-name="Path 59329" d="M9.183,26.219c.138.4.868.484,1.542.253a1.7,1.7,0,0,0,1.119-.933" transform="translate(-5.317 -14.788)" fill="none" stroke="currentColor" stroke-width="1"></path><path id="Path_59330" data-name="Path 59330" d="M22.351,16.155c4.428-2.131,6.826-5.651,6.314-13.892A17.684,17.684,0,0,0,22.351,1a17.684,17.684,0,0,0-6.314,1.263C15.525,10.5,17.923,14.024,22.351,16.155Z" transform="translate(-9.246 -0.579)" fill="none" stroke="currentColor" stroke-width="1"></path><path id="Path_59331" data-name="Path 59331" d="M29.975,24a10.524,10.524,0,0,1-5.893,0c-.28-.1,1.145,2.526,2.947,2.526S30.255,23.892,29.975,24Z" transform="translate(-13.924 -13.893)" fill="none" stroke="currentColor" stroke-width="1"></path><path id="Path_59332" data-name="Path 59332" d="M33.13,15.263c0-.614.631-1.263,1.684-1.263s2.1.759,2.1,1.263" transform="translate(-19.183 -8.106)" fill="none" stroke="currentColor" stroke-width="1"></path><path id="Path_59333" data-name="Path 59333" d="M20.13,15.263c0-.5,1.052-1.263,2.1-1.263s1.684.649,1.684,1.263" transform="translate(-11.656 -8.106)" fill="none" stroke="currentColor" stroke-width="1"></path></g></g></g></svg>